<?xml version="1.0" encoding="utf-8"?>
<!-- Generator: Adobe Illustrator 19.0.0, SVG Export Plug-In . SVG Version: 6.00 Build 0)  -->
<!DOCTYPE svg PUBLIC "-//W3C//DTD SVG 1.1//EN" "http://www.w3.org/Graphics/SVG/1.1/DTD/svg11.dtd">
<svg version="1.1" id="Ebene_1" xmlns="http://www.w3.org/2000/svg" xmlns:xlink="http://www.w3.org/1999/xlink" x="0px" y="0px"
	 viewBox="0 0 16 16" style="enable-background:new 0 0 16 16;" xml:space="preserve">
<style type="text/css">
	.st0{fill:#FFFFFF;}
</style>
<g id="XMLID_4_">
	<polygon id="XMLID_8_" class="st0" points="9.9,1 3.6,1 3.6,15 12.5,15 12.5,3.7 9.9,3.7 	"/>
	<path id="XMLID_5_" d="M10.4,0H2.6v16h10.9V3.2L10.4,0z M12.5,15H3.6V1h6.3v2.7h2.6V15z"/>
</g>
<g>
	<path d="M5.6,7.1c1.9,0,1.9,4.3,0,4.3C3.6,11.4,3.6,7.1,5.6,7.1z M5.6,7.8c-0.8,0-0.8,3,0,3C6.3,10.7,6.4,7.8,5.6,7.8z"/>
	<path d="M9.2,11.3H8.4v-3c-0.3,0.3-0.6,0.5-1,0.6V8.2C7.6,8.1,7.8,8,8,7.8c0.2-0.2,0.4-0.4,0.5-0.7h0.7V11.3z"/>
	<path d="M11.9,11.3h-0.8v-3c-0.3,0.3-0.6,0.5-1,0.6V8.2c0.2-0.1,0.4-0.2,0.7-0.4c0.2-0.2,0.4-0.4,0.5-0.7h0.7V11.3z"/>
</g>
</svg>
