<?xml version="1.0" encoding="utf-8"?>
<!-- Generator: Adobe Illustrator 19.0.0, SVG Export Plug-In . SVG Version: 6.00 Build 0)  -->
<!DOCTYPE svg PUBLIC "-//W3C//DTD SVG 1.1//EN" "http://www.w3.org/Graphics/SVG/1.1/DTD/svg11.dtd">
<svg version="1.1" id="Ebene_1" xmlns="http://www.w3.org/2000/svg" xmlns:xlink="http://www.w3.org/1999/xlink" x="0px" y="0px"
	 viewBox="0 0 16 16" style="enable-background:new 0 0 16 16;" xml:space="preserve">
<style type="text/css">
	.st0{fill:#FFFFFF;}
	.st1{fill:#CBCBCB;}
</style>
<g>
	<g>
		<g>
			<rect x="6.5" y="13.9" class="st0" width="2.9" height="2.1"/>
			<polygon class="st0" points="4.9,5.5 4.9,12.8 5.5,12.8 10.5,12.8 10.6,12.8 11,12.8 11,5.5 			"/>
			<path d="M11.3,4.4V0H4.7v4.4H3.9v9.5h1.6V16h1v-2.1h2.9V16h1.1v-2.1h1.6V4.4H11.3z M9,1.1h1.3v3.4H9V1.1z M7.4,1.1h1.1v3.4H7.4
				V1.1z M5.7,1.1h1.2v3.4H5.7V1.1z M4.9,12.8V5.5H11v7.3H4.9z"/>
			<rect x="7.4" y="1.1" class="st0" width="1.1" height="3.4"/>
			<rect x="9" y="1.1" class="st0" width="1.3" height="3.4"/>
			<rect x="5.7" y="1.1" class="st0" width="1.2" height="3.4"/>
		</g>
		<rect x="6.4" y="5.5" class="st1" width="3.2" height="4.4"/>
	</g>
</g>
</svg>
