<?xml version="1.0" encoding="utf-8"?>
<!-- Generator: Adobe Illustrator 19.0.0, SVG Export Plug-In . SVG Version: 6.00 Build 0)  -->
<!DOCTYPE svg PUBLIC "-//W3C//DTD SVG 1.1//EN" "http://www.w3.org/Graphics/SVG/1.1/DTD/svg11.dtd">
<svg version="1.1" id="Ebene_1" xmlns="http://www.w3.org/2000/svg" xmlns:xlink="http://www.w3.org/1999/xlink" x="0px" y="0px"
	 viewBox="0 0 16 16" style="enable-background:new 0 0 16 16;" xml:space="preserve">
<style type="text/css">
	.st0{fill:#FFFFFF;}
</style>
<g id="XMLID_54_">
	<polygon id="XMLID_191_" class="st0" points="7.1,0.9 1.8,0.9 1,2.5 1,4.6 15,4.6 15,2.9 8.1,2.9 	"/>
	<path id="XMLID_56_" d="M8.7,1.9l-1-2H1.2L0,2.3v2.3V16h16V4.6V1.9H8.7z M15,15H1V5.6h14V15z M15,4.6H1V2.5l0.8-1.6h5.3l1,2H15V4.6
		z"/>
	<rect id="XMLID_55_" x="1" y="5.6" class="st0" width="14" height="9.4"/>
</g>
<g>
	<path d="M5.6,13.2c-0.2-0.2-0.2-0.5,0-0.7c1.2-1.2,1.2-3.2,0-4.4c-0.2-0.2-0.2-0.5,0-0.7s0.5-0.2,0.7,0c1.6,1.6,1.6,4.2,0,5.8
		C6.1,13.4,5.8,13.4,5.6,13.2z"/>
	<path d="M8.5,13.8c-0.2-0.2-0.2-0.5,0-0.7C10,11.5,10,9,8.5,7.5C8.3,7.3,8.3,7,8.5,6.8s0.5-0.2,0.7,0c1.9,1.9,1.9,5.1,0,7
		C9,14,8.6,14,8.5,13.8z"/>
	<path d="M11.3,14.4c-0.2-0.2-0.2-0.5,0-0.7c1.9-1.9,1.9-5,0-6.8c-0.2-0.2-0.2-0.5,0-0.7C11.5,6,11.8,6,12,6.2c2.3,2.3,2.3,6,0,8.3
		C11.8,14.6,11.5,14.6,11.3,14.4z"/>
</g>
</svg>
