<?xml version="1.0" encoding="utf-8"?>
<!-- Generator: Adobe Illustrator 19.0.0, SVG Export Plug-In . SVG Version: 6.00 Build 0)  -->
<!DOCTYPE svg PUBLIC "-//W3C//DTD SVG 1.1//EN" "http://www.w3.org/Graphics/SVG/1.1/DTD/svg11.dtd">
<svg version="1.1" id="Ebene_1" xmlns="http://www.w3.org/2000/svg" xmlns:xlink="http://www.w3.org/1999/xlink" x="0px" y="0px"
	 viewBox="0 0 16 16" style="enable-background:new 0 0 16 16;" xml:space="preserve">
<style type="text/css">
	.st0{fill:#FFFFFF;}
</style>
<g id="XMLID_2_">
	<g id="XMLID_3_">
		<rect id="XMLID_8_" x="1" y="4.5" class="st0" width="14" height="7"/>
		<path id="XMLID_11_" d="M0,3.5v9h16v-9H0z M15,11.5H1v-7h14V11.5z"/>
	</g>
	<g id="XMLID_1_">
		<path id="XMLID_4_" d="M3.1,5.7H4v2.4c0,0.7,0.1,1.3,0.9,1.3c0.8,0,0.8-0.6,0.8-1.3V5.7h0.9v2.3c0,1.2-0.3,2.2-1.7,2.2
			S3.1,9.3,3.1,8.1V5.7z"/>
		<path id="XMLID_6_" d="M7.6,10.2V5.7h1.9c0.7,0,1.5,0.1,1.7,0.9c0.2,0.8-0.3,1.5-1.1,1.6c0.5,0.3,0.7,0.7,1,1.1l0.5,0.9h-1.1
			l-0.6-1C9.5,8.7,9.3,8.3,8.6,8.3H8.5v1.8H7.6z M8.5,7.6h0.7c0.4,0,1,0.1,1.1-0.5c0.1-0.7-0.6-0.6-1.1-0.6H8.5V7.6z"/>
		<path id="XMLID_13_" d="M12,10.2V5.7h0.9v4.4H12z"/>
	</g>
</g>
</svg>
