<?xml version="1.0" encoding="utf-8"?>
<!-- Generator: Adobe Illustrator 19.0.0, SVG Export Plug-In . SVG Version: 6.00 Build 0)  -->
<!DOCTYPE svg PUBLIC "-//W3C//DTD SVG 1.1//EN" "http://www.w3.org/Graphics/SVG/1.1/DTD/svg11.dtd">
<svg version="1.1" id="Ebene_1" xmlns="http://www.w3.org/2000/svg" xmlns:xlink="http://www.w3.org/1999/xlink" x="0px" y="0px"
	 viewBox="0 0 16 16" style="enable-background:new 0 0 16 16;" xml:space="preserve">
<style type="text/css">
	.st0{fill:#FFFFFF;}
</style>
<g id="XMLID_54_">
	<polygon id="XMLID_191_" class="st0" points="7.1,0.9 1.8,0.9 1,2.5 1,4.6 15,4.6 15,2.9 8.1,2.9 	"/>
	<path id="XMLID_56_" d="M8.7,1.9l-1-2H1.2L0,2.3v2.3V16h16V4.6V1.9H8.7z M15,15H1V5.6h14V15z M15,4.6H1V2.5l0.8-1.6h5.3l1,2H15V4.6
		z"/>
	<rect id="XMLID_55_" x="1" y="5.6" class="st0" width="14" height="9.4"/>
</g>
<rect x="8.2" y="9.3" width="5.3" height="1"/>
<rect x="8.2" y="11" width="5.3" height="1"/>
<rect x="8.2" y="12.8" width="5.3" height="1"/>
</svg>
