<?xml version="1.0" encoding="utf-8"?>
<!-- Generator: Adobe Illustrator 19.0.0, SVG Export Plug-In . SVG Version: 6.00 Build 0)  -->
<!DOCTYPE svg PUBLIC "-//W3C//DTD SVG 1.1//EN" "http://www.w3.org/Graphics/SVG/1.1/DTD/svg11.dtd">
<svg version="1.1" id="Ebene_1" xmlns="http://www.w3.org/2000/svg" xmlns:xlink="http://www.w3.org/1999/xlink" x="0px" y="0px"
	 viewBox="0 0 16 16" style="enable-background:new 0 0 16 16;" xml:space="preserve">
<g>
	<path d="M1.1,16v-5.7H5v1H2.3v1.4h2.4v1H2.3V16H1.1z"/>
	<path d="M7.4,16v-4.8H5.7v-1h4.6v1H8.6V16H7.4z"/>
	<path d="M10.9,16v-5.7h1.9c1.1,0,2.3,0.1,2.5,1.4c0.2,1.6-1.1,2.1-2.5,2.1H12V16H10.9z M12,11.2v1.6h0.6c0.6,0,1.4,0,1.4-0.8
		s-0.9-0.8-1.5-0.8H12z"/>
</g>
<path d="M10.9,3.6c-0.2,0-0.4,0-0.6,0c0-0.5,0-1,0-1.5C10.2,0.9,9.2,0,8,0S5.8,0.9,5.7,2.1c0,0.5,0,1,0,1.5c-0.2,0-0.4,0-0.6,0
	C4.8,3.6,4.7,3.7,4.7,4c0,1.4,0,2.7,0,4.1c0,0.2,0.1,0.3,0.3,0.3c1.9,0,3.9,0,5.8,0c0.2,0,0.3-0.1,0.3-0.3c0-1.4,0-2.8,0-4.1
	C11.1,3.8,11.1,3.6,10.9,3.6z M8,6.9c-0.6,0-1-0.4-1-1s0.4-1,1-1s1,0.4,1,1S8.6,6.9,8,6.9z M6.6,3.6c0-0.5-0.1-1.1,0-1.6
	c0.1-0.7,0.8-1.2,1.5-1.1C8.9,1,9.4,1.6,9.5,2.3c0,0.4,0,0.8,0,1.3C8.5,3.6,7.6,3.6,6.6,3.6z"/>
</svg>
