<?xml version="1.0" encoding="utf-8"?>
<!-- Generator: Adobe Illustrator 19.0.0, SVG Export Plug-In . SVG Version: 6.00 Build 0)  -->
<!DOCTYPE svg PUBLIC "-//W3C//DTD SVG 1.1//EN" "http://www.w3.org/Graphics/SVG/1.1/DTD/svg11.dtd">
<svg version="1.1" id="Ebene_1" xmlns="http://www.w3.org/2000/svg" xmlns:xlink="http://www.w3.org/1999/xlink" x="0px" y="0px"
	 viewBox="0 0 16 16" style="enable-background:new 0 0 16 16;" xml:space="preserve">
<style type="text/css">
	.st0{fill:#FFFFFF;}
</style>
<g>
	<path class="st0" d="M0,15h4.6V3.7H2V1H0V15z"/>
	<polygon points="5.6,3.2 2.5,0 0,0 0,1 2,1 2,3.7 4.6,3.7 4.6,15 0,15 0,16 5.6,16 	"/>
	<path d="M2.3,9.3h0.8V5.1H2.5C2.4,5.3,2.2,5.5,2,5.7C1.7,5.9,1.5,6.1,1.3,6.1v0.7c0.4-0.1,0.7-0.3,1-0.6V9.3z"/>
	<path d="M2.3,14.2h0.8V10H2.5c-0.1,0.3-0.3,0.5-0.5,0.7C1.7,10.8,1.5,11,1.3,11v0.7c0.4-0.1,0.7-0.3,1-0.6V14.2z"/>
</g>
<g id="XMLID_7_">
	<polygon id="XMLID_9_" points="10.8,8 8,6.4 8,7.6 6,7.6 6,8.4 8,8.4 8,9.6 	"/>
</g>
<path d="M15.1,0v1.6h-3V0h-0.9v16h0.9v-1.4h3V16H16V0H15.1z M15.1,13.6h-3v-1.4h3V13.6z M15.1,11.2h-3V9.8h3V11.2z M15.1,8.8h-3V7.4
	h3V8.8z M15.1,6.4h-3V4.9h3V6.4z M15.1,4h-3V2.5h3V4z"/>
</svg>
