<?xml version="1.0" encoding="utf-8"?>
<!-- Generator: Adobe Illustrator 19.0.0, SVG Export Plug-In . SVG Version: 6.00 Build 0)  -->
<!DOCTYPE svg PUBLIC "-//W3C//DTD SVG 1.1//EN" "http://www.w3.org/Graphics/SVG/1.1/DTD/svg11.dtd">
<svg version="1.1" id="Ebene_1" xmlns="http://www.w3.org/2000/svg" xmlns:xlink="http://www.w3.org/1999/xlink" x="0px" y="0px"
	 viewBox="0 0 16 16" style="enable-background:new 0 0 16 16;" xml:space="preserve">
<style type="text/css">
	.st0{fill:#FFFFFF;}
</style>
<g>
	<path class="st0" d="M8,1C4.1,1,1,4.1,1,8c0,3.9,3.1,7,7,7c3.9,0,7-3.1,7-7C15,4.1,11.9,1,8,1z"/>
	<path d="M8,0C3.6,0,0,3.6,0,8s3.6,8,8,8s8-3.6,8-8S12.4,0,8,0z M8,15c-3.9,0-7-3.1-7-7c0-3.9,3.1-7,7-7c3.9,0,7,3.1,7,7
		C15,11.8,11.9,15,8,15z"/>
</g>
<g>
	<rect x="5.7" y="12" width="4.6" height="1"/>
	<g id="XMLID_11_">
		<polygon id="XMLID_12_" points="8,11.5 10.3,7.6 8.5,7.6 8.5,3 7.5,3 7.5,7.6 5.7,7.6 		"/>
	</g>
</g>
</svg>
