<?xml version="1.0" encoding="UTF-8" standalone="no"?>
<!-- Generator: Adobe Illustrator 19.0.0, SVG Export Plug-In . SVG Version: 6.00 Build 0)  -->

<svg
   version="1.1"
   id="Ebene_1"
   x="0px"
   y="0px"
   viewBox="0 0 16 16"
   style="enable-background:new 0 0 16 16;"
   xml:space="preserve"
   sodipodi:docname="modeltobinaryobjects16x16.svg"
   inkscape:version="1.1 (c68e22c387, 2021-05-23)"
   xmlns:inkscape="http://www.inkscape.org/namespaces/inkscape"
   xmlns:sodipodi="http://sodipodi.sourceforge.net/DTD/sodipodi-0.dtd"
   xmlns="http://www.w3.org/2000/svg"
   xmlns:svg="http://www.w3.org/2000/svg"><defs
   id="defs65" /><sodipodi:namedview
   id="namedview63"
   pagecolor="#ffffff"
   bordercolor="#666666"
   borderopacity="1.0"
   inkscape:pageshadow="2"
   inkscape:pageopacity="0.0"
   inkscape:pagecheckerboard="0"
   showgrid="false"
   inkscape:zoom="35.753087"
   inkscape:cx="7.2581146"
   inkscape:cy="8.0832182"
   inkscape:window-width="958"
   inkscape:window-height="1008"
   inkscape:window-x="953"
   inkscape:window-y="0"
   inkscape:window-maximized="0"
   inkscape:current-layer="g12" />
<style
   type="text/css"
   id="style38">
	.st0{fill:#FFFFFF;}
	.st1{fill:#CBCBCB;}
</style>
<g
   id="g48">
	<path
   class="st0"
   d="M16,1h-2v2.7h-2.6l0,11.3H16V1z"
   id="path40" />
	<polygon
   points="10.4,16 16,16 16,15 11.4,15 11.4,3.7 14,3.7 14,1 16,1 16,0 13.5,0 10.4,3.2  "
   id="polygon42" />
	<path
   d="M13.9,9.3h0.8V5.1h-0.6c-0.1,0.2-0.3,0.4-0.5,0.6c-0.3,0.2-0.5,0.4-0.7,0.4v0.7c0.4-0.1,0.7-0.3,1-0.6V9.3z"
   id="path44" />
	<path
   d="M13.9,14.2h0.8V10h-0.6c-0.1,0.3-0.3,0.5-0.5,0.7c-0.3,0.1-0.5,0.3-0.7,0.3v0.7c0.4-0.1,0.7-0.3,1-0.6V14.2z"
   id="path46" />
</g>
<g
   id="XMLID_7_">
	<polygon
   id="XMLID_9_"
   points="10,8 7.2,6.4 7.2,7.6 5.2,7.6 5.2,8.4 7.2,8.4 7.2,9.6  " />
</g>


<g
   id="g12"
   transform="translate(-10.331077,3.3908839)"><path
     d="M 10.335242,-3.4201374 1.7568878,12.68443 H 18.913594 Z M 8.1167011,3.0216885 14.920223,7.3699212 8.1167011,11.55711 Z"
     id="path8"
     style="stroke-width:1.54334" /><rect
     style="fill:#ffffff;fill-rule:evenodd"
     id="rect423"
     width="8.922307"
     height="18.208218"
     x="1.3808005"
     y="-4.9012432" /><path
     style="fill:#ffffff;stroke-width:0.0312529"
     d="m 12.09917,12.58293 c -0.528664,2.66e-4 -0.966291,-0.0042 -0.972503,-0.0101 -0.01417,-0.01328 0.899702,-1.78571 0.921023,-1.786296 0.01831,-5.04e-4 1.011302,1.738835 1.01213,1.772862 3.07e-4,0.01267 -0.431985,0.02326 -0.960651,0.02351 z m 0.117975,-0.874173 c -0.216402,-0.126898 -0.402567,-0.230502 -0.413705,-0.230232 -0.01114,2.71e-4 -0.01479,0.225467 -0.0081,0.50044 0.0067,0.274971 0.01953,0.499768 0.02853,0.499548 0.04275,-10e-4 0.812892,-0.498914 0.800692,-0.517626 -0.0077,-0.01177 -0.191013,-0.125232 -0.407413,-0.25213 z"
     id="path1950" /></g></svg>
