<?xml version="1.0" encoding="utf-8"?>
<!-- Generator: Adobe Illustrator 19.0.0, SVG Export Plug-In . SVG Version: 6.00 Build 0)  -->
<!DOCTYPE svg PUBLIC "-//W3C//DTD SVG 1.1//EN" "http://www.w3.org/Graphics/SVG/1.1/DTD/svg11.dtd">
<svg version="1.1" id="Ebene_1" xmlns="http://www.w3.org/2000/svg" xmlns:xlink="http://www.w3.org/1999/xlink" x="0px" y="0px"
	 viewBox="0 0 16 16" style="enable-background:new 0 0 16 16;" xml:space="preserve">
<style type="text/css">
	.st0{fill:#FFFFFF;}
</style>
<g id="XMLID_60_">
	<g id="XMLID_65_">
		<rect id="XMLID_67_" x="1" y="8" class="st0" width="14" height="7"/>
		<path id="XMLID_66_" d="M0,7v9h16V7H0z M15,15H1V8h14V15z"/>
	</g>
	<g>
		<path d="M1.6,13.9l1.6-2.5L1.7,9.1h1.1l1,1.5l0.9-1.5h1.1l-1.5,2.3L6,13.9H4.9l-1.1-1.6l-1.1,1.6H1.6z"/>
		<path d="M7.8,13.9v-2L6,9.1h1.1L8.3,11l1.1-1.9h1.1l-1.8,2.8v2H7.8z"/>
		<path d="M10.5,13.9V13L13,9.9h-2.2V9.1h3.5v0.7l-2.6,3.2h2.7v0.8H10.5z"/>
	</g>
</g>
<g id="XMLID_58_">
	<polygon id="XMLID_59_" points="15,3.5 12.2,1.9 12.2,3.1 8.5,3.1 8.5,3.9 12.2,3.9 12.2,5.1 	"/>
</g>
<rect x="1.7" y="1.1" width="4.7" height="4.7"/>
</svg>
