<?xml version="1.0" encoding="utf-8"?>
<!-- Generator: Adobe Illustrator 19.0.0, SVG Export Plug-In . SVG Version: 6.00 Build 0)  -->
<!DOCTYPE svg PUBLIC "-//W3C//DTD SVG 1.1//EN" "http://www.w3.org/Graphics/SVG/1.1/DTD/svg11.dtd">
<svg version="1.1" id="Ebene_1" xmlns="http://www.w3.org/2000/svg" xmlns:xlink="http://www.w3.org/1999/xlink" x="0px" y="0px"
	 viewBox="0 0 16 16" style="enable-background:new 0 0 16 16;" xml:space="preserve">
<style type="text/css">
	.st0{fill:#FFFFFF;}
</style>
<g id="XMLID_2_">
	<g id="XMLID_3_">
		<rect id="XMLID_8_" x="1" y="8" class="st0" width="14" height="7"/>
		<path id="XMLID_11_" d="M0,7v9h16V7H0z M15,15H1V8h14V15z"/>
	</g>
	<g id="XMLID_1_">
		<path id="XMLID_4_" d="M3.1,9.2H4v2.4C4,12.3,4.1,13,4.9,13s0.8-0.6,0.8-1.3V9.2h0.9v2.3c0,1.2-0.3,2.2-1.7,2.2s-1.8-0.9-1.8-2.1
			C3.1,11.6,3.1,9.2,3.1,9.2z"/>
		<path id="XMLID_6_" d="M7.6,13.7V9.2h1.9c0.7,0,1.5,0.1,1.7,0.9c0.2,0.8-0.3,1.5-1.1,1.6c0.5,0.3,0.7,0.7,1,1.1l0.5,0.9h-1.1
			l-0.6-1c-0.3-0.5-0.5-0.9-1.2-0.9H8.5v1.9H7.6L7.6,13.7z M8.5,11.1h0.7c0.4,0,1,0.1,1.1-0.5C10.4,9.9,9.6,10,9.2,10H8.5V11.1z"/>
		<path id="XMLID_13_" d="M12,13.7V9.2h0.9v4.5H12L12,13.7z"/>
	</g>
</g>
<g id="XMLID_17_">
	<polygon id="XMLID_22_" points="15,3.5 12.2,1.9 12.2,3.1 8.5,3.1 8.5,3.9 12.2,3.9 12.2,5.1 	"/>
</g>
<rect x="1.7" y="1.1" width="4.7" height="4.7"/>
</svg>
