<?xml version="1.0" encoding="utf-8"?>
<!-- Generator: Adobe Illustrator 19.1.0, SVG Export Plug-In . SVG Version: 6.00 Build 0)  -->
<!DOCTYPE svg PUBLIC "-//W3C//DTD SVG 1.1//EN" "http://www.w3.org/Graphics/SVG/1.1/DTD/svg11.dtd">
<svg version="1.1" id="Ebene_1" xmlns="http://www.w3.org/2000/svg" xmlns:xlink="http://www.w3.org/1999/xlink" x="0px" y="0px"
	 viewBox="0 0 16 16" style="enable-background:new 0 0 16 16;" xml:space="preserve">
<style type="text/css">
	.st0{fill:#FFFFFF;}
	.st1{fill:#F1933B;}
</style>
<g id="XMLID_2_">
	<g id="XMLID_3_">
		<rect id="XMLID_8_" x="1" y="1" class="st0" width="14" height="7"/>
		<path id="XMLID_11_" d="M0,0v9h16V0H0z M15,8H1V1h14V8z"/>
	</g>
	<g id="XMLID_1_">
		<path id="XMLID_4_" d="M3.1,2.2H4v2.4C4,5.3,4.1,6,4.9,6s0.8-0.6,0.8-1.3V2.2h0.9v2.3c0,1.2-0.3,2.2-1.7,2.2S3.1,5.8,3.1,4.6V2.2z
			"/>
		<path id="XMLID_6_" d="M7.6,6.7V2.2h1.9c0.7,0,1.5,0.1,1.7,0.9s-0.3,1.5-1.1,1.6c0.5,0.3,0.7,0.7,1,1.1l0.5,0.9h-1.1l-0.6-1
			C9.6,5.2,9.4,4.8,8.7,4.8H8.5v1.9L7.6,6.7L7.6,6.7z M8.5,4.1h0.7c0.4,0,1,0.1,1.1-0.5C10.4,2.9,9.6,3,9.2,3H8.5V4.1z"/>
		<path id="XMLID_13_" d="M12,6.7V2.2h0.9v4.5H12L12,6.7z"/>
	</g>
</g>
<g id="XMLID_17_">
	<polygon id="XMLID_22_" points="7.8,13 5,11.4 5,12.6 1.3,12.6 1.3,13.4 5,13.4 5,14.6 	"/>
</g>
<rect x="9.2" y="10.4" class="st1" width="4.7" height="4.7"/>
</svg>
