<?xml version="1.0" encoding="utf-8"?>
<!-- Generator: Adobe Illustrator 19.0.0, SVG Export Plug-In . SVG Version: 6.00 Build 0)  -->
<!DOCTYPE svg PUBLIC "-//W3C//DTD SVG 1.1//EN" "http://www.w3.org/Graphics/SVG/1.1/DTD/svg11.dtd">
<svg version="1.1" id="Ebene_1" xmlns="http://www.w3.org/2000/svg" xmlns:xlink="http://www.w3.org/1999/xlink" x="0px" y="0px"
	 viewBox="0 0 16 16" style="enable-background:new 0 0 16 16;" xml:space="preserve">
<style type="text/css">
	.st0{fill:#FFFFFF;}
</style>
<g>
	<path class="st0" d="M16,1h-2v2.7h-2.6V15H16V1z"/>
	<polygon points="10.4,16 16,16 16,15 11.4,15 11.4,3.7 14,3.7 14,1 16,1 16,0 13.5,0 10.4,3.2 	"/>
	<path d="M13.9,9.3h0.8V5.1h-0.6c-0.1,0.2-0.3,0.4-0.5,0.6c-0.3,0.2-0.5,0.4-0.7,0.4v0.7c0.4-0.1,0.7-0.3,1-0.6V9.3z"/>
	<path d="M13.9,14.2h0.8V10h-0.6c-0.1,0.3-0.3,0.5-0.5,0.7c-0.3,0.1-0.5,0.3-0.7,0.3v0.7c0.4-0.1,0.7-0.3,1-0.6V14.2z"/>
</g>
<g id="XMLID_7_">
	<polygon id="XMLID_9_" points="10,8 7.2,6.4 7.2,7.6 5.2,7.6 5.2,8.4 7.2,8.4 7.2,9.6 	"/>
</g>
<path d="M0,0l0,16h0.9v-1.4h3V16h0.9V0H3.9v1.6h-3V0H0z M0.9,12.2h3v1.4h-3V12.2z M0.9,9.8h3v1.4h-3V9.8z M0.9,7.4h3v1.4h-3V7.4z
	 M0.9,4.9h3v1.4h-3V4.9z M0.9,2.5h3V4h-3V2.5z"/>
</svg>
