<svg width="16" height="16" viewBox="0 0 16 16" fill="none" xmlns="http://www.w3.org/2000/svg">
<rect x="0.5" y="1.5" width="15" height="13" rx="1.5" fill="white" stroke="#3E3A39"/>
<path d="M2 1.5H14C14.8284 1.5 15.5 2.17157 15.5 3V3.5H0.5V3C0.5 2.17157 1.17157 1.5 2 1.5Z" fill="#3E3A39" stroke="#3E3A39"/>
<rect x="10" y="2" width="1" height="1" rx="0.5" fill="white"/>
<rect x="12" y="2" width="1" height="1" rx="0.5" fill="white"/>
<rect x="14" y="2" width="1" height="1" rx="0.5" fill="white"/>
<rect x="4" y="7" width="1" height="1" fill="#201E1E"/>
<rect x="3" y="6" width="1" height="1" fill="#201E1E"/>
<rect x="5" y="8" width="1" height="1" fill="#201E1E"/>
<rect x="4" y="9" width="1" height="1" fill="#201E1E"/>
<rect x="3" y="10" width="1" height="1" fill="#201E1E"/>
<rect opacity="0.1" x="5" y="7" width="1" height="1" fill="#201E1E"/>
<rect opacity="0.1" x="4" y="6" width="1" height="1" fill="#201E1E"/>
<rect opacity="0.1" x="6" y="8" width="1" height="1" fill="#201E1E"/>
<rect opacity="0.1" x="5" y="9" width="1" height="1" fill="#201E1E"/>
<rect opacity="0.1" x="4" y="10" width="1" height="1" fill="#201E1E"/>
<rect opacity="0.1" x="3" y="11" width="1" height="1" fill="#201E1E"/>
<rect x="7" y="10" width="3" height="1" fill="#201E1E"/>
<rect opacity="0.1" x="7" y="11" width="3" height="1" fill="#201E1E"/>
</svg>
