<?xml version="1.0" encoding="utf-8"?>
<!-- Generator: Adobe Illustrator 19.0.0, SVG Export Plug-In . SVG Version: 6.00 Build 0)  -->
<!DOCTYPE svg PUBLIC "-//W3C//DTD SVG 1.1//EN" "http://www.w3.org/Graphics/SVG/1.1/DTD/svg11.dtd">
<svg version="1.1" id="Ebene_1" xmlns="http://www.w3.org/2000/svg" xmlns:xlink="http://www.w3.org/1999/xlink" x="0px" y="0px"
	 viewBox="0 0 16 16" style="enable-background:new 0 0 16 16;" xml:space="preserve">
<path d="M10.9,3.6c-0.2,0-0.4,0-0.6,0c0-0.5,0-1,0-1.5C10.2,0.9,9.2,0,8,0S5.8,0.9,5.7,2.1c0,0.5,0,1,0,1.5c-0.2,0-0.4,0-0.6,0
	C4.8,3.6,4.7,3.7,4.7,4c0,1.4,0,2.7,0,4.1c0,0.2,0.1,0.3,0.3,0.3c1.9,0,3.9,0,5.8,0c0.2,0,0.3-0.1,0.3-0.3c0-1.4,0-2.8,0-4.1
	C11.1,3.8,11.1,3.6,10.9,3.6z M8,6.9c-0.6,0-1-0.4-1-1s0.4-1,1-1s1,0.4,1,1S8.6,6.9,8,6.9z M6.6,3.6c0-0.5-0.1-1.1,0-1.6
	c0.1-0.7,0.8-1.2,1.5-1.1C8.9,1,9.4,1.6,9.5,2.3c0,0.4,0,0.8,0,1.3C8.5,3.6,7.6,3.6,6.6,3.6z"/>
<g>
	<path d="M0.4,16v-3.6h0.7v1.4h1.4v-1.4h0.7V16H2.6v-1.6H1.2V16H0.4z"/>
	<path d="M4.7,16v-3H3.6v-0.6h2.8V13h-1v3H4.7z"/>
	<path d="M7.8,16v-3h-1v-0.6h2.8V13H8.5v3H7.8z"/>
	<path d="M9.9,16v-3.6H11c0.7,0,1.5,0.1,1.6,1c0.1,1-0.7,1.3-1.5,1.3h-0.5V16H9.9z M10.6,13v1H11c1.1,0,1.1-1,0-1H10.6z"/>
	<g id="XMLID_140_">
		<path id="XMLID_141_" d="M12.8,14.8c0.1,0,0.6-0.1,0.6-0.1s0.1,0.3,0.2,0.4c0.1,0.2,0.5,0.3,0.7,0.3c0.3,0,0.7-0.3,0.6-0.7
			c-0.1-0.3-0.7-0.3-1-0.4c-0.4-0.1-0.8-0.3-0.9-0.7c-0.1-0.4,0-0.8,0.4-1.1c0.8-0.5,2.1-0.2,2.1,0.8c-0.1,0-0.7,0-0.7,0
			S14.7,13,14.2,13c-0.4,0-0.8,0.3-0.4,0.6c0.3,0.2,0.8,0.2,1.1,0.4c0.9,0.4,0.9,1.6,0,1.9C14,16.2,12.9,15.8,12.8,14.8z"/>
	</g>
</g>
</svg>
