<?xml version="1.0" encoding="utf-8"?>
<!-- Generator: Adobe Illustrator 19.0.0, SVG Export Plug-In . SVG Version: 6.00 Build 0)  -->
<!DOCTYPE svg PUBLIC "-//W3C//DTD SVG 1.1//EN" "http://www.w3.org/Graphics/SVG/1.1/DTD/svg11.dtd">
<svg version="1.1" id="Ebene_1" xmlns="http://www.w3.org/2000/svg" xmlns:xlink="http://www.w3.org/1999/xlink" x="0px" y="0px"
	 viewBox="0 0 16 16" style="enable-background:new 0 0 16 16;" xml:space="preserve">
<style type="text/css">
	.st0{fill:#FFFFFF;}
	.st1{fill:#CBCBCB;}
</style>
<g>
	<path class="st0" d="M16,1h-2v2.7h-2.6l0,11.3H16V1z"/>
	<polygon points="10.4,16 16,16 16,15 11.4,15 11.4,3.7 14,3.7 14,1 16,1 16,0 13.5,0 10.4,3.2 	"/>
	<path d="M13.9,9.3h0.8V5.1h-0.6c-0.1,0.2-0.3,0.4-0.5,0.6c-0.3,0.2-0.5,0.4-0.7,0.4v0.7c0.4-0.1,0.7-0.3,1-0.6V9.3z"/>
	<path d="M13.9,14.2h0.8V10h-0.6c-0.1,0.3-0.3,0.5-0.5,0.7c-0.3,0.1-0.5,0.3-0.7,0.3v0.7c0.4-0.1,0.7-0.3,1-0.6V14.2z"/>
</g>
<g id="XMLID_7_">
	<polygon id="XMLID_9_" points="10,8 7.2,6.4 7.2,7.6 5.2,7.6 5.2,8.4 7.2,8.4 7.2,9.6 	"/>
</g>
<polygon points="3.8,15 3.8,10.8 3.8,8.9 3.8,1 0,1 0,0 4.8,0 4.8,16 0,16 0,15 "/>
<g>
	<path class="st0" d="M3.8,1v7.9C3.6,8.8,2,7.8,0,8.1L0,1H3.8z"/>
	<path class="st1" d="M3.8,8.9v1.9V15H0l0-6.9C2,7.8,3.6,8.8,3.8,8.9z"/>
	<path class="st1" d="M0,4.6c0.3,0.3,0.6,0.5,1.1,0.5c0.8,0,1.4-0.6,1.4-1.4S1.9,2.3,1.1,2.3C0.6,2.3,0.3,2.5,0,2.8L0,4.6z"/>
</g>
</svg>
